<svg width="285" height="287" viewBox="0 0 285 287" fill="none" xmlns="http://www.w3.org/2000/svg">
<path d="M59.6797 75.811L59.6787 75.811L59.6787 88.8587L72.6422 88.8587L72.6422 75.8121L72.6432 75.8121L72.6432 75.811L85.4868 75.811L85.4868 62.7633L72.5233 62.7633L72.5233 62.7649C65.4193 62.8302 59.6803 68.692 59.6797 75.811Z" fill="#CCFBF1"/>
<path d="M72.5831 236.25L72.5831 236.251L85.6309 236.251L85.6309 223.288L72.5842 223.288L72.5842 223.287L72.5831 223.287L72.5831 210.443L59.5354 210.443L59.5354 223.406L59.537 223.406C59.6024 230.51 65.4641 236.249 72.5831 236.25Z" fill="#CCFBF1"/>
<path d="M219.545 62.9079V62.9069H206.497V75.8704L219.544 75.8704V75.8714H219.545L219.545 88.715H232.593V75.7515H232.591C232.526 68.6475 226.664 62.9085 219.545 62.9079Z" fill="#CCFBF1"/>
<path d="M230.034 240.001L185.71 195.923C175.105 204.461 161.63 209.602 146.953 209.602C112.936 209.602 85.2578 182.077 85.2578 148.248C85.2578 114.42 112.936 86.895 146.953 86.895C180.969 86.895 208.648 114.42 208.648 148.249C208.648 162.844 203.479 176.245 194.893 186.791L239.216 230.869C240.483 232.129 241.119 233.782 241.119 235.435C241.119 237.089 240.483 238.742 239.216 240.001C236.677 242.526 232.573 242.526 230.034 240.001ZM195.659 148.249C195.659 121.537 173.813 99.8116 146.953 99.8116C120.093 99.8116 98.2461 121.537 98.2461 148.249C98.2461 174.96 120.093 196.686 146.953 196.686C173.813 196.686 195.659 174.96 195.659 148.249Z" fill="#CCFBF1"/>
<rect x="200.214" y="218.159" width="23.6639" height="53.7428" rx="11.832" transform="rotate(-45 200.214 218.159)" fill="#CCFBF1"/>
<path fill-rule="evenodd" clip-rule="evenodd" d="M120.977 162.731C120.388 163.319 120.388 164.274 120.977 164.863L129.733 173.618C130.321 174.207 131.276 174.207 131.865 173.618L145.499 159.984C146.088 159.395 147.043 159.395 147.631 159.984L161.265 173.617C161.854 174.206 162.808 174.206 163.397 173.617L172.153 164.862C172.741 164.273 172.741 163.319 172.153 162.73L158.519 149.096C157.93 148.507 157.93 147.553 158.519 146.964L172.152 133.331C172.741 132.742 172.741 131.787 172.152 131.199L163.397 122.443C162.808 121.855 161.853 121.855 161.265 122.443L147.631 136.077C147.043 136.665 146.088 136.665 145.499 136.077L131.865 122.442C131.276 121.854 130.322 121.854 129.733 122.442L120.978 131.198C120.389 131.787 120.389 132.741 120.978 133.33L134.612 146.964C135.201 147.553 135.201 148.507 134.612 149.096L120.977 162.731Z" fill="#CCFBF1"/>
<path d="M56.9287 83.8157L56.9287 73.268L56.9296 73.268L56.9297 72.0181C56.9302 65.5752 62.1263 60.2808 68.5348 60.2219L68.7062 60.2203L80.2368 60.2203L80.2368 70.768L68.6432 70.768L67.3932 70.768L67.3932 70.7691L67.3922 70.7691L67.3922 72.0191L67.3922 83.8157L56.9287 83.8157Z" fill="white" stroke="#115E59" stroke-width="2.5"/>
<path d="M80.3809 231.208L69.8331 231.208L69.8331 231.207L68.5832 231.207C62.1404 231.206 56.8459 226.01 56.787 219.602L56.7854 219.43L56.7854 207.9L67.3331 207.9L67.3331 219.493L67.3331 220.743L67.3342 220.743L67.3342 220.744L68.5842 220.744L80.3809 220.744L80.3809 231.208Z" fill="white" stroke="#115E59" stroke-width="2.5"/>
<path d="M203.747 60.3639H214.295V60.3648L215.545 60.3649C221.988 60.3654 227.282 65.5614 227.341 71.9699L227.343 72.1413V83.6719H216.795L216.795 72.0784V70.8284H216.794V70.8274H215.544L203.747 70.8274V60.3639Z" fill="white" stroke="#115E59" stroke-width="2.5"/>
<path d="M226.033 236.208L181.71 192.13C171.105 200.668 157.63 205.809 142.953 205.809C108.936 205.809 81.2578 178.284 81.2578 144.455C81.2578 110.627 108.936 83.1019 142.953 83.1019C176.969 83.1019 204.648 110.627 204.648 144.456C204.648 159.051 199.479 172.452 190.893 182.998L235.216 227.076C236.483 228.336 237.119 229.989 237.119 231.642C237.119 233.296 236.483 234.949 235.216 236.208C232.677 238.733 228.573 238.733 226.033 236.208ZM191.659 144.456C191.659 117.744 169.813 96.0186 142.953 96.0186C116.093 96.0186 94.2461 117.744 94.2461 144.456C94.2461 171.167 116.093 192.893 142.953 192.893C169.813 192.893 191.659 171.167 191.659 144.456Z" fill="white" stroke="#115E59" stroke-width="2.5"/>
<rect x="197.982" y="214.366" width="21.1639" height="51.2428" rx="10.582" transform="rotate(-45 197.982 214.366)" fill="white" stroke="#115E59" stroke-width="2.5"/>
<path fill-rule="evenodd" clip-rule="evenodd" d="M116.977 158.938C116.388 159.526 116.388 160.481 116.977 161.07L125.733 169.825C126.321 170.414 127.276 170.414 127.865 169.825L141.499 156.191C142.088 155.602 143.043 155.602 143.631 156.191L157.265 169.824C157.854 170.413 158.808 170.413 159.397 169.824L168.153 161.069C168.741 160.48 168.741 159.526 168.153 158.937L154.519 145.303C153.93 144.714 153.93 143.76 154.519 143.171L168.152 129.538C168.741 128.949 168.741 127.994 168.152 127.406L159.397 118.65C158.808 118.062 157.853 118.062 157.265 118.65L143.631 132.284C143.043 132.872 142.088 132.872 141.499 132.284L127.865 118.649C127.276 118.061 126.322 118.061 125.733 118.649L116.978 127.405C116.389 127.994 116.389 128.948 116.978 129.537L130.612 143.171C131.201 143.76 131.201 144.714 130.612 145.303L116.977 158.938Z" fill="white"/>
<path d="M130.612 145.303L131.496 146.187L130.612 145.303ZM127.865 118.649L126.981 119.533L127.865 118.649ZM141.499 132.284L140.615 133.167L141.499 132.284ZM157.265 118.65L156.381 117.766L157.265 118.65ZM154.519 145.303L153.635 146.187L154.519 145.303ZM168.153 158.937L169.036 158.053L168.153 158.937ZM116.977 158.938L116.093 158.054L116.977 158.938ZM126.616 168.941L117.861 160.186L116.093 161.954L124.849 170.709L126.616 168.941ZM140.615 155.307L126.981 168.941L128.749 170.709L142.383 157.075L140.615 155.307ZM158.149 168.94L144.515 155.307L142.748 157.075L156.381 170.708L158.149 168.94ZM167.269 160.185L158.513 168.94L160.281 170.708L169.036 161.953L167.269 160.185ZM153.635 146.187L167.269 159.821L169.036 158.053L155.403 144.419L153.635 146.187ZM167.268 128.654L153.635 142.287L155.403 144.055L169.036 130.422L167.268 128.654ZM158.513 119.534L167.268 128.29L169.036 126.522L160.281 117.766L158.513 119.534ZM144.515 133.167L158.149 119.534L156.381 117.766L142.748 131.4L144.515 133.167ZM126.981 119.533L140.615 133.167L142.383 131.4L128.749 117.766L126.981 119.533ZM117.862 128.289L126.617 119.533L124.849 117.766L116.094 126.521L117.862 128.289ZM131.496 142.287L117.862 128.653L116.094 130.421L129.728 144.055L131.496 142.287ZM117.861 159.822L131.496 146.187L129.728 144.419L116.093 158.054L117.861 159.822ZM129.728 144.055C129.829 144.156 129.829 144.319 129.728 144.419L131.496 146.187C132.573 145.11 132.573 143.364 131.496 142.287L129.728 144.055ZM116.094 126.521C115.017 127.598 115.017 129.344 116.094 130.421L117.862 128.653C117.761 128.552 117.761 128.389 117.862 128.289L116.094 126.521ZM128.749 117.766C127.672 116.689 125.926 116.689 124.849 117.766L126.617 119.533C126.718 119.433 126.881 119.433 126.981 119.533L128.749 117.766ZM142.748 131.4C142.647 131.5 142.484 131.5 142.383 131.4L140.615 133.167C141.692 134.244 143.438 134.244 144.515 133.167L142.748 131.4ZM160.281 117.766C159.204 116.689 157.458 116.689 156.381 117.766L158.149 119.534C158.249 119.434 158.412 119.434 158.513 119.534L160.281 117.766ZM169.036 130.422C170.113 129.345 170.113 127.599 169.036 126.522L167.268 128.29C167.369 128.39 167.369 128.553 167.268 128.654L169.036 130.422ZM155.403 144.419C155.302 144.319 155.302 144.156 155.403 144.055L153.635 142.287C152.558 143.364 152.558 145.11 153.635 146.187L155.403 144.419ZM169.036 161.953C170.113 160.876 170.113 159.13 169.036 158.053L167.269 159.821C167.369 159.921 167.369 160.084 167.269 160.185L169.036 161.953ZM156.381 170.708C157.458 171.785 159.204 171.785 160.281 170.708L158.513 168.94C158.413 169.041 158.25 169.041 158.149 168.94L156.381 170.708ZM142.383 157.075C142.484 156.974 142.647 156.974 142.748 157.075L144.515 155.307C143.438 154.23 141.692 154.23 140.615 155.307L142.383 157.075ZM117.861 160.186C117.761 160.085 117.761 159.922 117.861 159.822L116.093 158.054C115.016 159.131 115.016 160.877 116.093 161.954L117.861 160.186ZM124.849 170.709C125.926 171.786 127.672 171.786 128.749 170.709L126.981 168.941C126.88 169.042 126.717 169.042 126.616 168.941L124.849 170.709Z" fill="#115E59"/>
</svg>
