<svg width="284" height="287" viewBox="0 0 284 287" fill="none" xmlns="http://www.w3.org/2000/svg">
<path d="M59.6319 75.811L59.6309 75.811L59.6309 88.8587L72.5943 88.8587L72.5943 75.8121L72.5954 75.8121L72.5954 75.811L85.4389 75.811L85.4389 62.7633L72.4754 62.7633L72.4754 62.7649C65.3715 62.8302 59.6325 68.692 59.6319 75.811Z" fill="#CCFBF1"/>
<path d="M72.5353 236.25L72.5353 236.251L85.583 236.251L85.583 223.288L72.5364 223.288L72.5364 223.287L72.5353 223.287L72.5353 210.443L59.4876 210.443L59.4876 223.406L59.4892 223.406C59.5545 230.51 65.4163 236.249 72.5353 236.25Z" fill="#CCFBF1"/>
<path d="M219.497 62.9079V62.9069H206.449V75.8704L219.496 75.8704V75.8714H219.497L219.497 88.715H232.545V75.7515H232.543C232.478 68.6475 226.616 62.9085 219.497 62.9079Z" fill="#CCFBF1"/>
<path d="M56.8809 83.8157L56.8809 73.268L56.8818 73.268L56.8819 72.0181C56.8824 65.5752 62.0784 60.2808 68.4869 60.2219L68.6583 60.2203L80.1889 60.2203L80.1889 70.768L68.5954 70.768L67.3454 70.768L67.3454 70.7691L67.3443 70.7691L67.3443 72.0191L67.3443 83.8157L56.8809 83.8157Z" fill="white" stroke="#115E59" stroke-width="2.5"/>
<path d="M80.333 231.208L69.7853 231.208L69.7853 231.207L68.5354 231.207C62.0925 231.206 56.7981 226.01 56.7391 219.602L56.7376 219.43L56.7376 207.9L67.2853 207.9L67.2853 219.493L67.2853 220.743L67.2864 220.743L67.2864 220.744L68.5364 220.744L80.333 220.744L80.333 231.208Z" fill="white" stroke="#115E59" stroke-width="2.5"/>
<path d="M203.699 60.3639H214.247V60.3648L215.497 60.3649C221.94 60.3654 227.234 65.5614 227.293 71.9699L227.295 72.1413V83.6719H216.747L216.747 72.0784V70.8284H216.746V70.8274H215.496L203.699 70.8274V60.3639Z" fill="white" stroke="#115E59" stroke-width="2.5"/>
<path d="M151.511 132.957L151.511 132.957C155.688 129.514 159.158 126.531 161.572 123.493C164.02 120.412 165.435 117.212 165.435 113.344C165.435 100.42 154.923 89.9079 142 89.9079C129.076 89.9079 118.565 100.42 118.565 113.344C118.565 116.878 115.7 119.743 112.165 119.743C108.631 119.743 105.766 116.878 105.766 113.344C105.766 93.3653 122.021 77.109 142 77.109C161.978 77.109 178.234 93.3647 178.233 113.344C178.233 127.434 168.201 135.784 159.653 142.832L159.653 142.832L159.594 142.88C156.74 145.234 153.988 147.503 151.955 149.717C149.933 151.919 148.399 154.298 148.399 156.881V170.114C148.399 173.648 145.534 176.514 142 176.514C138.466 176.514 135.6 173.648 135.6 170.114V156.881C135.6 146.169 143.739 139.364 151.511 132.957Z" fill="white" stroke="#115E59" stroke-width="2.5"/>
<path d="M131.531 199.425C131.531 193.653 136.227 188.957 141.998 188.957C147.769 188.957 152.466 193.653 152.466 199.425C152.466 205.194 147.769 209.891 141.998 209.891C136.227 209.891 131.531 205.194 131.531 199.425Z" fill="white" stroke="#115E59" stroke-width="2.5"/>
</svg>
